<?xml version="1.0" encoding="utf-8"?>
<!-- Generator: Adobe Illustrator 16.0.0, SVG Export Plug-In . SVG Version: 6.00 Build 0)  -->
<!DOCTYPE svg PUBLIC "-//W3C//DTD SVG 1.1//EN" "http://www.w3.org/Graphics/SVG/1.1/DTD/svg11.dtd">
<svg version="1.1" id="Layer_1" xmlns="http://www.w3.org/2000/svg" xmlns:xlink="http://www.w3.org/1999/xlink" x="0px" y="0px"
	 width="124px" height="40px" viewBox="-0.25 0 124 40" enable-background="new -0.25 0 124 40" xml:space="preserve">
<path fill="#FFE400" d="M3.542,18.727c0,0.144,0,0.294,0,0.439c0,3.477-0.016,6.952,0.008,10.426
	c0.008,1.353-1.046,2.091-2.38,1.732c-0.617-0.17-0.991-0.596-1.096-1.231c-0.041-0.24-0.062-0.49-0.062-0.736
	C0.008,23.613,0.027,17.868,0,12.122c-0.014-1.827,1.492-2.482,3.016-1.955c0.583,0.203,0.852,0.732,1.088,1.258
	c0.86,1.93,1.712,3.856,2.567,5.786c0.364,0.819,0.725,1.633,1.088,2.451c0.049,0.111,0.113,0.225,0.202,0.405
	c0.381-0.859,0.732-1.646,1.081-2.43c0.917-2.071,1.843-4.139,2.748-6.218c0.484-1.107,1.113-1.638,2.733-1.339
	c0.798,0.149,1.339,0.876,1.343,1.687c0,5.993,0,11.983,0,17.975c-0.004,0.976-0.653,1.633-1.626,1.666
	c-1.11,0.032-1.81-0.554-1.871-1.576c-0.008-0.155-0.008-0.309-0.008-0.467c0-3.398,0-6.795,0-10.194c0-0.14,0-0.281,0-0.422
	c-0.024-0.012-0.056-0.023-0.08-0.038c-0.057,0.116-0.122,0.229-0.169,0.344c-0.777,1.782-1.542,3.563-2.323,5.341
	c-0.463,1.057-1.248,1.463-2.344,1.232c-0.669-0.143-1.062-0.601-1.322-1.203c-0.766-1.771-1.534-3.54-2.304-5.304
	c-0.057-0.137-0.124-0.274-0.189-0.405C3.6,18.72,3.572,18.724,3.542,18.727z"/>
<path fill="#FFE400" d="M63.493,18.71c-0.256,0.588-0.517,1.178-0.773,1.771c-0.571,1.312-1.137,2.638-1.716,3.953
	c-0.454,1.023-1.245,1.424-2.327,1.193c-0.674-0.145-1.063-0.604-1.324-1.208c-0.77-1.781-1.544-3.562-2.319-5.342
	c-0.053-0.127-0.116-0.251-0.239-0.371c-0.004,0.133-0.017,0.265-0.017,0.396c0,3.503-0.013,7.008,0.004,10.509
	c0.009,1.29-0.984,2.067-2.357,1.721c-0.76-0.193-1.156-0.795-1.178-1.678c-0.011-0.571-0.002-1.14-0.002-1.713
	c0-5.279,0.023-10.557-0.014-15.832c-0.008-1.885,1.601-2.468,3.068-1.922c0.488,0.178,0.752,0.621,0.959,1.079
	c0.748,1.674,1.495,3.356,2.244,5.035c0.505,1.138,1.005,2.273,1.509,3.411c0.042,0.096,0.091,0.183,0.17,0.344
	c0.087-0.169,0.147-0.287,0.202-0.405c1.217-2.744,2.441-5.49,3.643-8.241c0.521-1.188,1.217-1.563,2.63-1.349
	c0.864,0.131,1.435,0.847,1.442,1.724c0.009,1.269,0,2.542,0,3.811c0,4.685-0.016,9.363,0.009,14.047
	c0.008,1.662-1.608,2.076-2.629,1.579c-0.629-0.306-0.88-0.843-0.88-1.521c0-2.895,0-5.782,0-8.677c0-0.765,0-1.526,0-2.29
	C63.563,18.724,63.527,18.72,63.493,18.71z"/>
<path fill="#FFE400" d="M83.11,20.736c0,1.558,0,3.116,0,4.67c0,3.421-2.58,5.967-6.01,6.007c-2.046,0.024-3.762-0.61-5.105-2.174
	c-0.984-1.149-1.364-2.51-1.364-3.994c-0.004-3.01-0.012-6.018,0-9.027c0.013-3.147,1.926-5.527,4.984-6.093
	c3.382-0.62,6.31,1.124,7.202,4.034c0.182,0.583,0.264,1.219,0.281,1.831C83.135,17.574,83.11,19.157,83.11,20.736z M79.58,20.726
	c0-1.547,0-3.089,0-4.63c-0.004-1.414-0.831-2.365-2.241-2.569c-1.762-0.26-3.167,0.828-3.175,2.494
	c-0.017,3.136-0.013,6.27,0,9.409c0.008,1.521,1.146,2.559,2.737,2.551c1.604-0.008,2.675-1.043,2.679-2.592
	C79.58,23.833,79.58,22.278,79.58,20.726z"/>
<path fill="#FFE400" d="M31.941,31.406c-0.83-0.003-1.336-0.363-1.587-1.162c-0.347-1.112-0.69-2.226-1.018-3.34
	c-0.082-0.291-0.197-0.418-0.533-0.412c-1.75,0.02-3.497,0.02-5.25,0.004c-0.326-0.004-0.446,0.115-0.533,0.408
	c-0.322,1.114-0.662,2.232-1.018,3.34c-0.23,0.723-0.751,1.125-1.441,1.159c-0.799,0.04-1.473-0.184-1.848-0.944
	c-0.204-0.408-0.208-0.848-0.067-1.285c1.856-5.87,3.713-11.741,5.569-17.61c0.418-1.318,1.214-1.772,2.56-1.494
	c0.574,0.125,0.954,0.488,1.153,1.001c0.313,0.823,0.582,1.662,0.847,2.497c1.604,5.096,3.204,10.194,4.804,15.291
	c0.069,0.221,0.144,0.446,0.178,0.674C33.892,30.612,33.115,31.406,31.941,31.406z M28.1,22.98c-0.633-2.117-1.256-4.204-1.88-6.294
	c-0.029,0-0.059,0-0.084,0.004c-0.623,2.087-1.248,4.175-1.879,6.291C25.55,22.98,26.799,22.98,28.1,22.98z"/>
<path fill="#FFE400" d="M41.837,31.438c-1.662,0.019-3.154-0.432-4.411-1.547c-1.121-0.993-1.7-2.267-1.848-3.743
	c-0.033-0.354-0.057-0.726-0.013-1.078c0.125-0.965,0.852-1.514,1.87-1.456c0.939,0.053,1.58,0.715,1.621,1.662
	c0.012,0.258,0.021,0.517,0.071,0.77c0.189,0.975,0.781,1.591,1.74,1.827c0.732,0.184,1.471,0.146,2.192-0.069
	c1.34-0.408,1.992-1.866,1.34-3.125c-0.252-0.488-0.633-0.972-1.078-1.295c-0.909-0.66-1.9-1.208-2.852-1.811
	c-0.904-0.578-1.828-1.133-2.69-1.769c-3.019-2.229-2.844-7.396,1.096-9.128c2.508-1.1,4.939-0.917,7.18,0.678
	c1.219,0.869,1.855,2.108,1.806,3.643c-0.033,0.922-0.723,1.576-1.667,1.599c-1.027,0.025-1.75-0.538-1.8-1.484
	c-0.033-0.686-0.392-1.078-0.966-1.314c-0.935-0.381-1.889-0.393-2.852-0.112c-1.497,0.438-1.778,2.558-0.617,3.332
	c0.806,0.542,1.633,1.054,2.473,1.536c1.38,0.799,2.771,1.587,3.899,2.74c1.927,1.973,2.393,4.816,1.145,7.129
	c-0.902,1.674-2.377,2.549-4.204,2.881C42.798,31.386,42.318,31.394,41.837,31.438z"/>
<path fill="#FFE400" d="M91.958,23.379c0.175-0.729,0.347-1.451,0.517-2.175c0.777-3.3,1.549-6.598,2.335-9.896
	c0.186-0.782,0.707-1.213,1.504-1.295c0.704-0.07,1.52,0.332,1.754,0.981c0.136,0.379,0.187,0.851,0.096,1.24
	c-1.391,5.865-2.812,11.727-4.227,17.584c-0.348,1.433-1.91,2.079-3.182,1.328c-0.451-0.268-0.717-0.671-0.837-1.17
	c-1.377-5.723-2.757-11.443-4.131-17.168c-0.104-0.447-0.215-0.922-0.169-1.367c0.082-0.843,0.807-1.397,1.72-1.431
	c0.806-0.029,1.48,0.475,1.679,1.282c0.272,1.118,0.529,2.24,0.789,3.364c0.678,2.87,1.354,5.738,2.026,8.611
	c0.01,0.037,0.028,0.069,0.042,0.103C91.904,23.374,91.933,23.374,91.958,23.379z"/>
<path fill="#FFE400" d="M112.202,27.772c1.953,0,3.83-0.004,5.712,0c0.23,0,0.467,0.016,0.693,0.05
	c0.823,0.128,1.393,0.834,1.393,1.716c0,0.885-0.595,1.591-1.446,1.7c-0.215,0.027-0.438,0.045-0.657,0.045
	c-2.372,0.003-4.747,0.003-7.124,0.003c-1.397,0-2.101-0.71-2.101-2.112c0-5.703-0.003-11.414,0.009-17.119
	c0-0.392,0.064-0.814,0.227-1.166c0.318-0.703,1.149-1.006,1.992-0.813c0.774,0.172,1.263,0.764,1.303,1.579
	c0.005,0.12,0,0.236,0,0.353c0,5.072,0,10.144,0,15.217C112.202,27.389,112.202,27.554,112.202,27.772z"/>
<path fill="#FFE400" d="M30.122,5.834c0.016,0.404-0.203,0.749-0.603,0.943c-1.176,0.572-2.357,1.125-3.544,1.662
	c-0.579,0.266-1.174,0.008-1.464-0.574c-0.297-0.613-0.12-1.254,0.485-1.555c0.992-0.5,2-0.963,3.004-1.439
	c0.14-0.066,0.278-0.138,0.417-0.203C29.27,4.296,30.122,4.85,30.122,5.834z"/>
<path fill="#FFE400" d="M80.732,5.798c-0.021,0.454-0.227,0.785-0.62,0.975c-1.187,0.57-2.376,1.132-3.581,1.674
	c-0.57,0.26-1.177-0.021-1.446-0.608C74.8,7.227,75,6.585,75.602,6.293c1.149-0.562,2.306-1.113,3.469-1.646
	c0.607-0.28,1.277,0,1.538,0.63C80.674,5.437,80.692,5.623,80.732,5.798z"/>
<path fill="#FFFFFF" d="M105.13,22.705c0,1.249-1.013,2.257-2.257,2.257l0,0c-1.249,0-2.258-1.008-2.258-2.257V12.171
	c0-1.244,1.009-2.256,2.258-2.256l0,0c1.244,0,2.257,1.012,2.257,2.256V22.705z"/>
<path fill="#FFFFFF" d="M105.13,29.603c0,0.979-0.789,1.767-1.767,1.767h-0.879c-0.976,0-1.767-0.788-1.767-1.767v-0.722
	c0-0.975,0.791-1.765,1.767-1.765h0.879c0.978,0,1.767,0.79,1.767,1.765V29.603z"/>
</svg>
